<svg width="300" height="300" viewBox="0 0 300 300" fill="none" xmlns="http://www.w3.org/2000/svg">
<path fill-rule="evenodd" clip-rule="evenodd" d="M161.41 3.12547C158.174 4.81177 153.993 8.00874 152.123 10.2296L148.722 14.2703L144.247 9.04342C138.994 2.90912 133.312 0.848651 123.368 1.47099C117.945 1.80952 116.939 2.16842 118.911 3.05929C126.045 6.28553 131.449 10.8277 135.619 17.1071C142.083 26.8355 143.86 35.5151 142.528 50.8432C141.149 66.7033 137.244 75.3347 126.643 85.9602C118.621 93.9972 110.489 98.1105 97.9191 100.487C92.6986 101.474 91.8505 101.268 88.6698 98.2454C86.7433 96.4153 85.1682 94.5584 85.1682 94.1206C85.1682 93.6816 87.8905 93.1916 91.2164 93.0287C109.212 92.1531 122.113 83.6796 129.277 68.0308C132.24 61.5579 132.781 58.6498 132.833 48.9406C132.887 38.6561 132.52 36.812 129.244 30.8838C121.554 16.9697 112.771 11.2515 97.9013 10.479C89.1002 10.0221 87.8332 10.2868 81.7379 13.8567C73.9006 18.4472 67.9135 26.5453 65.894 35.286C63.2111 46.903 69.3714 58.2668 80.9892 63.1335C87.6371 65.9168 91.3641 65.2741 96.1187 60.522C99.7935 56.849 100.448 55.3052 100.448 50.3138C100.448 45.2371 100.001 44.2279 97.1857 42.9463C94.252 41.61 93.6243 41.8352 90.9452 45.1938C87.9988 48.8871 87.9376 48.9011 85.2942 46.5098C80.5613 42.2285 83.1156 32.6961 89.9788 29.0245C93.9286 26.9118 101.827 26.8864 105.731 28.9748C114.658 33.7499 118.79 51.3409 113.437 61.7781C108.076 72.228 98.5112 77.5758 85.1784 77.5758C74.1769 77.5758 69.6783 75.8068 62.2192 68.5462C53.9452 60.4901 51.4253 54.6715 51.4253 43.6132V34.469L47.6054 37.3809C41.5533 41.9956 37.6239 50.2107 37.2648 58.9998L36.9529 66.627L31.0358 68.3515C23.4735 70.5557 15.3714 78.5469 11.6827 87.4391C10.1572 91.1146 9.13985 94.1206 9.41998 94.1206C9.70011 94.1206 12.0392 92.6902 14.6176 90.9415C20.7983 86.7493 27.8168 84.9408 38.6922 84.7397C55.6082 84.4279 69.0798 93.6383 78.5953 112.02C87.7619 129.726 88.5297 146.771 80.9089 163.409C78.1611 169.408 77.1552 170.481 74.2788 170.481C71.5399 170.481 71.07 170.054 71.834 168.254C76.1913 157.979 76.7503 155.013 76.8191 141.846C76.8827 129.493 76.5364 127.173 73.8726 122.12C66.495 108.121 56.8013 100.648 42.6611 98.0609C25.7706 94.9695 12.0685 101.731 4.34327 116.968C-2.2283 129.93 1.3408 149.114 11.8087 157.095C18.5063 162.201 30.5494 163.042 36.6651 158.832C43.7142 153.981 46.3321 149.497 46.3321 142.279C46.3321 136.833 45.7973 135.439 42.6789 132.758C40.1196 130.557 37.8314 129.733 35.0391 130.005C31.6138 130.337 31.1071 130.84 31.4394 133.574C31.652 135.324 31.9385 137.822 32.0761 139.125C32.4071 142.262 29.0239 144.32 25.1378 143.345C21.6718 142.476 17.6825 135.488 17.6825 130.285C17.6825 120.981 28.0626 113.46 38.7062 115.055C47.366 116.353 55.6871 122.659 59.381 130.723C62.0486 136.549 62.3848 138.644 61.6259 144.718C60.406 154.475 59.3505 156.808 53.0526 163.665C39.8496 178.037 19.8535 179.722 4.70235 167.737L0 164.017L0.734702 168.841C2.25504 178.812 8.85208 188.847 16.4767 192.787L19.9859 194.601L17.4673 199.404C14.0319 205.957 14.9105 216.699 19.525 224.57C21.3726 227.72 23.2889 230.296 23.7842 230.296C24.2796 230.295 24.8373 227.86 25.0219 224.887C25.7553 213.059 37.1158 197.167 49.2658 190.971C55.2122 187.939 67.0464 185.837 74.3335 186.521C92.2962 188.205 94.8836 188.725 99.9552 193.447C101.53 194.605 101.865 194.72 103.575 195.935C105.685 196.629 117.813 207.034 120.57 211.703L123.143 216.064L120.077 218.944C116.515 222.289 116.942 222.558 112.835 214.389C108.926 206.61 106.904 204.724 97.2124 199.813C90.9185 196.622 88.1057 195.967 80.7116 195.967C64.7646 195.964 54.5208 199.875 45.852 209.276C39.0258 216.677 35.5726 224.17 35.5369 231.656C35.4376 252.412 50.3201 266.987 70.3175 265.716C80.1615 265.088 86.6669 260.872 90.3722 252.717C95.1229 242.26 92.5483 233.52 83.4174 229.101C75.8361 225.433 70.6295 226.343 68.7742 231.659C67.5417 235.193 67.7174 235.51 71.8608 237.241C77.0661 239.415 77.6327 242.914 73.4155 246.842C67.2272 252.603 60.6581 250.831 55.4847 242.002C49.728 232.178 54.1006 221.147 65.9972 215.476C71.8824 212.671 74.1349 212.267 80.9013 212.811C91.9486 213.696 96.4485 216.606 101.085 225.855C104.311 232.295 104.905 234.96 104.905 243.024C104.905 250.885 104.281 253.839 101.365 259.774C97.0164 268.625 89.6642 275.476 82.3822 277.461C69.4746 280.982 69.8349 280.595 76.679 283.596C83.7522 286.698 92.3026 287.073 98.3559 284.544C102.41 282.851 102.63 282.917 105 286.542C108.202 291.44 117.22 296.719 124.19 297.777C127.24 298.24 129.734 298.385 129.734 298.102C129.734 297.818 128.044 296.163 125.979 294.427C121.584 290.729 115.962 279.876 115.246 273.706C114.381 266.236 116.582 253.821 120.2 245.764C128.376 227.555 150.101 214.968 171.435 216.081C175.227 216.28 175.573 216.65 175.573 220.513V224.727L166.342 224.649C158.792 224.584 155.693 225.224 149.33 228.164C133.578 235.44 125.914 247.617 125.914 265.367C125.914 284.173 136.674 297.521 153.627 299.747C162.61 300.927 170.276 297.97 176.215 291.034C184.78 281.035 184.861 270.558 176.446 261.639C169.094 253.848 159.993 254.29 154.476 262.706C151.247 267.632 153.075 270.812 159.402 271.271C163.825 271.592 164.82 272.152 165.155 274.504C165.687 278.253 159.761 283.75 155.186 283.75C147.743 283.75 141.194 274.815 141.194 264.659C141.194 257.586 143.766 252.019 149.264 247.193C167.482 231.207 193.139 246.918 194.416 274.841C194.789 282.98 194.397 285.277 191.753 290.431C190.049 293.757 188.815 296.476 189.011 296.476C189.208 296.476 191.888 295.397 194.967 294.077C201.382 291.33 206.819 285.5 208.007 280.096C208.815 276.418 208.862 276.4 212.707 278.317C217.362 280.638 226.852 279.862 233.062 276.652L237.21 274.509L228.993 272.428C214.379 268.727 204.148 259.696 196.406 243.66C191.697 233.908 191.491 232.942 191.517 220.752C191.541 209.069 191.881 207.319 195.652 199.409C199.745 190.828 209.576 179.81 216.328 176.241C219.167 174.741 219.919 174.872 223.123 177.425L226.725 180.296L219.81 184.197C212.292 188.437 207.564 193.369 203.211 201.514C199.148 209.113 199.144 228.626 203.203 236.024C211.901 251.878 221.298 259.338 234.025 260.491C260.966 262.934 278.057 235.341 261.809 215.638C253.416 205.462 238.872 204.668 232.314 214.028C229.954 217.395 229.703 224.075 231.854 226.225C233.574 227.944 237.966 228.302 237.966 226.722C237.966 226.156 238.706 224.682 239.61 223.446C241 221.546 241.762 221.432 244.563 222.708C249.57 224.988 251.297 229.083 249.521 234.463C247.383 240.939 243.771 243.66 237.314 243.66C226.954 243.66 216.289 231.096 216.348 218.961C216.402 207.389 224.927 196.23 235.997 193.239C241.308 191.804 252.223 193.372 260.419 196.748C268.811 200.203 277.439 213.539 277.439 223.052C277.439 228.671 279.573 227.981 282.383 221.453C285.432 214.366 286.055 200.743 283.577 195.307C282.197 192.277 282.452 191.704 286.762 188.154C293.314 182.756 297.772 174.581 298.582 166.475L299.262 159.664L296.579 163.084C292.997 167.65 283.315 173.439 275.778 175.522C270.448 176.996 268.239 176.921 258.588 174.936C245.9 172.324 242.85 170.993 232.072 163.367C217.901 153.341 210.343 137.855 211.588 121.399C212.377 110.954 213.787 107.474 217.632 106.468C220.067 105.832 220.208 106.122 219.263 109.809C218.696 112.03 218.244 117.283 218.26 121.483C218.293 130.028 222.07 139.249 229.54 149.028C238.017 160.124 258.498 166.472 272.6 162.374C285.194 158.715 295.546 148.423 299.331 135.798C301.227 129.474 298.992 119.387 293.924 111.4C285.021 97.3685 261.951 94.9364 252.884 107.075C247.101 114.818 248.224 124.37 255.531 129.57C263.025 134.904 270.605 131.577 264.867 125.473C261.511 121.902 261.446 120.045 264.621 118.346C269.669 115.647 277.338 117.372 280.899 122.009C281.753 123.12 282.469 126.443 282.491 129.393C282.564 138.948 273.067 146.323 260.738 146.288C254.976 146.271 244.161 141.103 240.707 136.715C239.174 134.766 237.002 130.015 235.879 126.155C233.384 117.577 234.862 109.001 240.217 100.957C250.521 85.4868 267.218 80.8581 283.307 89.0134C287.433 91.1044 290.988 92.8225 291.206 92.8314C291.425 92.8403 290.011 89.9246 288.066 86.3509C283.724 78.3763 275.208 70.6805 268.113 68.3197C263.018 66.6244 262.762 66.2872 262.016 60.2776C261.214 53.8099 256.126 42.3138 252.873 39.6144C251.296 38.3061 250.942 39.5202 250.438 47.967C249.533 63.1017 245.426 70.6054 232.409 80.9077C220.104 90.6488 210.694 94.1308 196.768 94.1003C180.154 94.0647 168.821 89.8928 157.31 79.5778C153.032 75.7432 152.524 74.7021 153.27 71.3079C154.095 67.5497 156.474 64.5869 156.474 67.3155C156.474 70.2974 166.451 79.453 173.027 82.5036C179.084 85.3137 181.753 85.749 192.781 85.7248C204.434 85.7006 206.132 85.3761 212.507 81.9551C233.241 70.8306 242.081 49.7971 234.155 30.4562C231.052 22.8863 223.341 14.6801 216.679 11.8586C210.977 9.44432 196.8 9.62885 191.745 12.1831C184.176 16.0088 179.747 20.1488 177.017 25.9522C173.683 33.0461 173.633 37.167 176.801 44.1413C179.788 50.7185 185.807 54.6715 192.763 54.6218C198.719 54.5811 201.124 53.0284 204.072 47.3268C205.919 43.7544 205.961 43.0672 204.367 42.4563C203.347 42.0656 201.3 42.3939 199.817 43.1855C195.211 45.6507 192.121 43.6997 192.167 38.3557C192.212 33.2154 193.838 30.4129 198.091 28.1489C203.441 25.3019 208.442 26.3544 213.949 31.4884C220.682 37.7678 221.899 45.1404 217.649 53.9168C212.883 63.7546 202.838 69.9589 191.748 69.9118C182.95 69.8749 175.983 66.515 169.544 59.2035C156.607 44.5142 157.413 22.5885 171.352 10.0017C174.034 7.57984 178.087 4.82831 180.357 3.88908C186.768 1.23427 185.279 -0.0625862 175.892 0.00232031C169.372 0.046864 165.876 0.800289 161.41 3.12547ZM135.16 98.5954C126.193 107.682 117.111 112.69 105.641 114.868C99.5248 116.03 98.0197 116.762 98.6182 118.279C99.0384 119.341 100.229 124.506 101.265 129.756C103.612 141.648 102.611 153.121 98.3368 163.301C96.6153 167.401 95.3827 170.914 95.5992 171.105C95.8144 171.296 99.5324 173.226 103.86 175.394C113.404 180.175 127.924 194.168 131.999 202.512L134.901 208.453L142.186 205.518C152.361 201.418 162.271 199.473 170.471 199.967L177.467 200.389L181.007 192.894C185.68 182.999 193.672 173.635 201.978 168.324C207.787 164.61 208.536 163.683 207.418 161.593C206.703 160.259 205.545 158.815 204.844 158.381C201.184 154.63 194.048 130.778 195.226 120.001C195.621 116.385 196.292 112.52 196.718 111.41C197.365 109.725 196.369 109.39 190.671 109.374C176.41 109.334 163.813 104.702 150.242 94.5063C147.166 92.1938 144.301 90.3561 143.876 90.4222C143.452 90.4884 139.529 94.1665 135.16 98.5954Z" fill="#F2B03D"/>
</svg>
